<svg width="756" height="854" viewBox="0 0 756 854" fill="none" xmlns="http://www.w3.org/2000/svg">
<g filter="url(#filter0_d_5_96)">
<path d="M4 30C4 13.4315 17.4315 0 34 0H722C738.569 0 752 13.4315 752 30V816C752 832.569 738.569 846 722 846H34C17.4315 846 4 832.569 4 816V30Z" fill="#76052B"/>
<path d="M5.5 30C5.5 14.2599 18.2599 1.5 34 1.5H722C737.74 1.5 750.5 14.2599 750.5 30V816C750.5 831.74 737.74 844.5 722 844.5H34C18.2599 844.5 5.5 831.74 5.5 816V30Z" stroke="#FFFBFB" stroke-width="3"/>
</g>
<defs>
<filter id="filter0_d_5_96" x="0" y="0" width="756" height="854" filterUnits="userSpaceOnUse" color-interpolation-filters="sRGB">
<feFlood flood-opacity="0" result="BackgroundImageFix"/>
<feColorMatrix in="SourceAlpha" type="matrix" values="0 0 0 0 0 0 0 0 0 0 0 0 0 0 0 0 0 0 127 0" result="hardAlpha"/>
<feOffset dy="4"/>
<feGaussianBlur stdDeviation="2"/>
<feComposite in2="hardAlpha" operator="out"/>
<feColorMatrix type="matrix" values="0 0 0 0 0 0 0 0 0 0 0 0 0 0 0 0 0 0 0.25 0"/>
<feBlend mode="normal" in2="BackgroundImageFix" result="effect1_dropShadow_5_96"/>
<feBlend mode="normal" in="SourceGraphic" in2="effect1_dropShadow_5_96" result="shape"/>
</filter>
</defs>
</svg>
